<svg width="32" height="32" viewBox="0 0 32 32" fill="none" xmlns="http://www.w3.org/2000/svg">
    <path d="M9.333 12.667v6.666L4 12.667V19.333M13.333 16h4M18 12.672h-4.667v6.661H18M21.333 12.667 22 19.333h.285l2.382-4 2.381 4h.285L28 12.667" stroke="#0A0A0A" stroke-width="1.5" stroke-linecap="round" stroke-linejoin="round"/>
    <path d="M25.483 8.667a11.715 11.715 0 0 0-.998-1.152c-4.686-4.687-12.284-4.687-16.97 0-.366.365-.69.753-.998 1.152M6.517 23.333c.307.399.632.787.998 1.152 4.686 4.687 12.284 4.687 16.97 0 .366-.365.69-.753.998-1.152" stroke="#E00800" stroke-width="1.5" stroke-linecap="round" stroke-linejoin="round"/>
</svg>
